<?xml version="1.0" encoding="UTF-8"?>
<svg width="61px" height="66px" viewBox="0 0 61 66" version="1.1" xmlns="http://www.w3.org/2000/svg" xmlns:xlink="http://www.w3.org/1999/xlink">
    <title>แม่อุ๋ยโลโก้</title>
    <g id="Page-1" stroke="none" stroke-width="1" fill="none" fill-rule="evenodd">
        <rect id="Rectangle" stroke="#979797" x="-62.5" y="-89.5" width="174" height="244"></rect>
        <g id="แม่อุ๋ยโลโก้" fill="#FFDD94" fill-rule="nonzero">
            <g id="Group" transform="translate(10.000000, 0.000000)">
                <path d="M30.7104412,15.7791928 C25.5736765,20.5642955 16.1586765,20.4336546 11.1897059,15.4713258 C10.9858824,15.2677691 10.6636765,15.2292857 10.4320588,15.4014481 C10.4289706,15.4034736 10.4258824,15.405499 10.4227941,15.4085372 C10.1623529,15.6019667 10.1026471,15.9675587 10.3054412,16.219726 C12.9263235,19.4746086 16.3717647,21.5233415 21.0957353,21.530445 C25.6457353,21.5365068 29.0108824,19.6336057 31.6091176,16.5822798 C31.8170588,16.3382143 31.7707353,15.973635 31.5164706,15.7761546 C31.5010294,15.764002 31.4845588,15.7518493 31.4691176,15.7396967 C31.2416176,15.5624706 30.9214706,15.582725 30.7104412,15.7791928 Z" id="Path"></path>
                <g transform="translate(0.000000, 6.582681)">
                    <g id="Group">
                        <path d="M40.705,0.280523483 C39.9525,-0.0982338552 38.9673529,-0.0253180039 38.1448529,0.767641879 C36.8395588,2.02645303 36.4525,3.55971135 36.8004412,5.31981898 C36.9044118,5.84542074 37.2276471,6.28899217 37.7351471,6.61407534 C37.8988235,6.71939824 37.8844118,7.01308708 37.7022059,7.06473581 C36.5616176,7.38880626 35.9563235,8.16860078 35.5167647,9.06181996 C34.9897059,10.1353033 34.7694118,11.2523337 35.1101471,12.4118982 C35.1523529,12.5577299 35.2223529,12.6974853 35.2810294,12.8382534 C35.3283824,12.9526908 35.4508824,13.0883953 35.4158824,13.176502 C35.3129412,13.4357583 35.1513235,13.6788112 35.0020588,13.9228767 C34.9845588,13.9512329 34.8991176,13.9583219 34.8455882,13.9583219 C33.8923529,13.9704746 33.0914706,14.3289775 32.3688235,14.8262231 C31.2982353,15.5634834 30.4983824,16.4769569 30.1545588,17.6496869 C29.9672059,18.2866879 30.0125,18.9034344 30.5025,19.4482779 C30.3480882,19.6862671 30.1802941,19.7186742 29.9002941,19.6366438 C28.9697059,19.3642221 28.0483824,19.5039775 27.1579412,19.7926027 C25.8907353,20.2037671 24.7851471,20.8225391 24.0851471,21.8656409 C23.8782353,22.1735078 23.8216176,22.5573288 23.6805882,22.9016536 C23.6486765,22.9796331 23.5683824,23.0829305 23.4911765,23.0981213 C23.2101471,23.1528082 22.9229412,23.193317 22.6357353,23.2074951 C21.8163235,23.2480039 20.9958824,23.3037035 20.1764706,23.2956018 C19.5238235,23.2895254 18.8722059,23.167999 18.2185294,23.1588845 C17.7130882,23.1517955 17.4866176,22.9563405 17.2323529,22.5836595 C16.3748529,21.3268738 15.0376471,20.6048043 13.44,20.2412378 C12.6875,20.0700881 11.9391176,20.0670499 11.2030882,20.352637 C11.1011765,20.3921331 10.9025,20.2716194 10.7676471,20.1966781 C10.7316176,20.1764237 10.7439706,20.0488209 10.7727941,19.9829941 C11.06,19.342955 10.9807353,18.7110176 10.7233824,18.0851566 C10.2076471,16.8324217 9.27602941,15.8713503 7.98205882,15.1816879 C7.43029412,14.887999 6.825,14.717862 6.16514706,14.7695108 C6.0025,14.7826761 5.90058824,14.7401419 5.86352941,14.6054501 C5.81308824,14.4221477 5.53514706,14.2641634 5.7225,14.0565558 C6.37205882,13.3365117 6.51823529,12.4989922 6.46882353,11.6250147 C6.41529412,10.6801468 6.1425,9.78085127 5.57220588,8.96662427 C5.12544118,8.32962329 4.54588235,7.83035225 3.67294118,7.67135519 C3.58441176,7.50931996 3.62558824,7.42222603 3.82117647,7.33817025 C4.57161765,7.01713796 4.92779412,6.42064579 5.07088235,5.75225049 C5.40544118,4.19063601 5.05441176,2.74143346 3.97352941,1.4471771 C3.70691176,1.12715753 3.51132353,0.684598826 3.09955882,0.546868885 C2.76397059,0.434456947 2.05779412,0.587377691 1.72426471,0.678522505 C0.884264706,0.909422701 0.391176471,1.45629159 0.178088235,2.19253914 C-0.0411764706,2.9490411 -0.0154411765,3.71465753 0.175,4.47014677 C0.443676471,5.53451566 0.907941176,6.50875245 1.96411765,7.18322407 C2.02176471,7.22069472 2.06191176,7.30069961 2.07529412,7.3655137 C2.10926471,7.53970157 2.10823529,7.71895303 2.15147059,7.89111546 C2.19058824,8.04606164 2.13191176,8.1442955 2.03720588,8.2749364 C1.83235294,8.5564726 1.61411765,8.85117417 1.51632353,9.16714286 C1.07470588,10.6041928 1.35264706,11.9683268 2.17,13.2554941 C2.51382353,13.7962867 2.96161765,14.3006213 3.64926471,14.4778474 C4.14441176,14.6054501 4.37191176,14.8464775 4.52735294,15.2171331 C4.55720588,15.2880235 4.61382353,15.3528376 4.62823529,15.4257534 C4.64779412,15.525 4.67044118,15.6374119 4.63544118,15.727544 C4.47382353,16.1376957 4.45117647,16.5559491 4.54279412,16.9742025 C4.81044118,18.1935176 5.58044118,19.154589 6.63661765,19.9485616 C7.36544118,20.4954305 8.17455882,20.9096331 9.18544118,20.8903914 C9.5375,21.1020499 9.89058824,21.311683 10.2385294,21.5273924 C10.2632353,21.5425832 10.2519118,21.6073973 10.2498529,21.6489188 C10.2292647,22.075274 10.3641176,22.473273 10.6163235,22.8267123 C11.7136765,24.3670597 13.3154412,25.2217955 15.3763235,25.375729 C16.1051471,25.4294031 16.8380882,25.2774951 17.2797059,24.7123973 C17.5205882,24.4045303 17.7666176,24.4025049 18.0970588,24.4571918 C18.1917647,24.4723826 18.2885294,24.4733953 18.3842647,24.4825098 C18.7064706,24.5128914 19.0276471,24.5442857 19.3766176,24.5777055 C19.3313235,24.6729012 19.3045588,24.7346771 19.2726471,24.7944276 C18.6313235,26.0086791 17.9941176,27.224956 17.3466176,28.437182 C17.1036765,28.8929061 16.9091176,29.3871135 16.5683824,29.7810616 C15.5626471,30.9467025 15.1447059,32.2166536 15.3969118,33.6648434 C15.7561765,35.7348434 17.8325,37.4919129 20.2011765,37.6823043 C22.0839706,37.8342123 23.6877941,37.3308904 24.9889706,36.105499 C26.7575,34.4395744 26.8923529,31.7032045 25.2689706,29.9268933 C25.0589706,29.6970059 24.7933824,29.4985127 24.6245588,29.2483708 C23.8247059,28.0574119 23.0495588,26.8543004 22.2672059,25.654227 C22.0397059,25.3058513 21.8173529,24.9554501 21.5795588,24.5847945 C21.6897059,24.5716292 21.7638235,24.5564384 21.8389706,24.5544129 C22.6686765,24.5341585 23.4973529,24.5169423 24.2951471,24.2799658 C24.36,24.2607241 24.4567647,24.2678131 24.5144118,24.297182 C25.0980882,24.6020108 25.7322059,24.6566977 26.3858824,24.5837818 C28.1451471,24.3883268 29.5832353,23.6875245 30.6527941,22.4499804 C31.0491176,21.9912182 31.2838235,21.4676419 31.1767647,20.8681115 C31.1675,20.8144374 31.2035294,20.7344325 31.2508824,20.6949364 C31.6688235,20.3384589 32.06,20.0164139 32.6879412,19.8553914 C34.5923529,19.3652348 35.7988235,18.1763014 36.4926471,16.5802544 C36.7191176,16.0576908 36.8055882,15.4956311 36.5327941,14.9801566 C36.3608824,14.6560861 36.3691176,14.4099951 36.5832353,14.1365607 C36.5945588,14.1223826 36.6027941,14.1071918 36.6089706,14.0909883 C36.6542647,13.9512329 36.7438235,13.8985714 36.9239706,13.9127495 C37.3738235,13.9481947 37.7958824,13.8388209 38.1427941,13.5957681 C38.4629412,13.3709442 38.7882353,13.1289041 39.0260294,12.8412916 C39.935,11.7424902 40.3055882,10.494819 40.1923529,9.14992661 C40.1388235,8.51292564 39.9133824,7.91238258 39.3719118,7.43842955 C39.2144118,7.30069961 39.3523529,6.79940313 39.5314706,6.68091487 C39.9051471,6.43482387 40.3261765,6.21202544 40.6092647,5.89808219 C41.6397059,4.75472114 42.0236765,3.42299413 41.8723529,1.98796967 C41.7910294,1.21425147 41.3277941,0.593454012 40.705,0.280523483 Z M2.68058824,6.00340509 C2.20088235,5.62262231 1.94147059,5.12537671 1.76338235,4.59673679 C1.52455882,3.88580724 1.42058824,3.15968689 1.67794118,2.43761742 C1.75205882,2.23000978 1.91058824,1.9646771 2.11029412,1.89176125 C2.37897059,1.7935274 2.58794118,2.05784736 2.75367647,2.23608611 C3.29308824,2.81536204 3.52470588,3.50502446 3.63897059,4.23114481 C3.66676471,4.4063454 3.67705882,4.58255871 3.69558824,4.75877202 C3.71308824,4.76383562 3.73058824,4.7678865 3.74705882,4.77193738 C3.63897059,5.14360568 3.57,5.52742661 3.41352941,5.88187867 C3.255,6.24139432 3.01205882,6.26671233 2.68058824,6.00340509 Z M4.67970588,13.0468738 C4.54588235,13.3567661 4.32147059,13.3810714 4.01985294,13.1734638 C3.62044118,12.8980039 3.38882353,12.5202593 3.20764706,12.1171967 C2.83705882,11.2918297 2.69294118,10.4462084 2.94823529,9.57324364 C3.01411765,9.34841977 3.08102941,9.07498532 3.37132353,9.01118395 C3.68838235,8.94231898 3.87676471,9.18739726 4.04455882,9.37373777 C4.70132353,10.1059344 4.92367647,10.9657339 4.98338235,12.0756751 C4.92264706,12.2772065 4.84029412,12.6752055 4.67970588,13.0468738 Z M8.83029412,19.53841 C7.94191176,19.3196624 7.31808824,18.7889971 6.78485294,18.1681996 C6.38235294,17.7003229 6.06529412,17.1909247 6.00867647,16.5913943 C5.96235294,16.1042759 6.15588235,15.973635 6.69632353,16.1285812 C7.54661765,16.3736595 8.15602941,16.8931849 8.67279412,17.5048679 C9.08352941,17.9909736 9.39029412,18.5175881 9.43970588,19.0442025 C9.44279412,19.5394227 9.28632353,19.6508219 8.83029412,19.53841 Z M15.4905882,24.0672945 C14.6876471,24.0500783 13.9536765,23.8019618 13.3102941,23.407001 C12.8666176,23.1345793 12.4919118,22.7750636 12.1027941,22.4388405 C11.9916176,22.3426321 11.9247059,22.1998386 11.8598529,22.0691977 C11.6508824,21.6489188 11.8073529,21.4463748 12.3313235,21.445362 C12.3704412,21.445362 12.4085294,21.445362 12.4476471,21.445362 C13.9557353,21.6215753 15.2033824,22.1795841 16.0001471,23.3513014 C16.3275,23.8323434 16.1391176,24.0814726 15.4905882,24.0672945 Z M22.7252941,29.0184834 C22.9538235,29.3688845 23.1802941,29.7213112 23.415,30.0686742 C23.4777941,30.1618444 23.5601471,30.2479256 23.6486765,30.3238796 C25.2185294,31.6799119 25.3533824,33.7752299 23.8957353,35.2062035 C22.4339706,36.641228 20.0210294,36.7870597 18.3379412,35.6204061 C16.7104412,34.4922358 16.3223529,32.399956 17.5370588,30.9082192 C18.0064706,30.3309687 18.34,29.7081458 18.6786765,29.0802593 C19.2675,27.9855088 19.8377941,26.8826566 20.4163235,25.7828425 C20.4358824,25.7463845 20.4626471,25.7119521 20.5151471,25.6319472 C21.2676471,26.7844227 21.9964706,27.901453 22.7252941,29.0184834 Z M29.5307353,21.5466341 C28.9347059,22.5077055 26.9952941,23.3999119 25.7548529,23.2824364 C25.1722059,23.2277495 25.0414706,23.02318 25.3379412,22.5826468 C25.7744118,21.9324804 26.4497059,21.5172652 27.2083824,21.2012965 C27.7323529,20.9825489 28.28,20.8245646 28.8719118,20.8255725 C28.9398529,20.8286155 29.0067647,20.8316536 29.0747059,20.8346918 C29.6933824,20.8650734 29.8251471,21.0706556 29.5307353,21.5466341 Z M34.6911765,16.856727 C34.1610294,17.587911 33.4867647,18.1894667 32.5551471,18.5337916 C32.4058824,18.5894912 32.2463235,18.6320254 32.0857353,18.655318 C31.7069118,18.7100049 31.57,18.5986057 31.572036,18.1114873 C31.6307353,17.9636301 31.71,17.6669031 31.8613235,17.4005577 C32.3564706,16.5316438 33.0925,15.8591977 34.1054412,15.4399315 C34.3020588,15.3589139 34.5244118,15.311316 34.7405882,15.2839726 C35.0236765,15.2475147 35.1564706,15.3579012 35.1647059,15.6080431 C35.1811765,16.0728816 34.965,16.4779697 34.6911765,16.856727 Z M37.8411765,12.0280773 C37.7207353,12.1779599 37.5735294,12.3167025 37.4139706,12.4351908 C37.0454412,12.7086252 36.7983824,12.6509002 36.6316176,12.2539139 C36.4164706,11.7414775 36.4277941,11.2128376 36.5307353,10.6841977 C36.6645588,9.99656067 36.9219118,9.34943249 37.4325,8.79952544 C37.5642647,8.65774462 37.7269118,8.5311546 37.8988235,8.42785714 C38.1592647,8.27189824 38.3383824,8.29822896 38.4505882,8.55748532 C38.5977941,8.8977593 38.6677941,9.26233855 38.7707353,9.61679061 C38.6647059,10.5008953 38.4197059,11.3120841 37.8411765,12.0280773 Z M39.4635294,5.0443591 C39.3194118,5.20841977 39.1320588,5.35121331 38.9364706,5.46868885 C38.7048529,5.60945695 38.5473529,5.56996086 38.4248529,5.34513699 C38.3270588,5.16588552 38.2385294,4.96941781 38.2158824,4.77396282 C38.0717647,3.56477495 38.3826471,2.46901174 39.3266176,1.54338552 C39.3647059,1.50591487 39.4079412,1.47046967 39.4522059,1.43907534 C39.8289706,1.17374266 40.0647059,1.22944227 40.2325,1.62845401 C40.2922059,1.77023483 40.3395588,1.91809198 40.3642647,2.06696184 C40.3920588,2.23304795 40.3889706,2.40318493 40.4013235,2.59357632 C40.3560294,3.47363014 40.1027941,4.31722603 39.4635294,5.0443591 Z" id="Shape"></path>
                        <path d="M20.5141176,25.6309344 C21.2676471,26.7844227 21.9964706,27.901453 22.7252941,29.0184834 C22.9538235,29.3688845 23.1802941,29.7213112 23.415,30.0686742 C23.4777941,30.1618444 23.5601471,30.2479256 23.6486765,30.3238796 C25.2185294,31.6799119 25.3533824,33.7752299 23.8957353,35.2062035 C22.4339706,36.641228 20.0210294,36.7870597 18.3379412,35.6204061 C16.7104412,34.4922358 16.3223529,32.399956 17.5370588,30.9082192 C18.0064706,30.3309687 18.34,29.7081458 18.6786765,29.0792466 C19.2675,27.9844961 19.8377941,26.8816438 20.4163235,25.7818297 C20.4348529,25.7453718 20.4616176,25.7109393 20.5141176,25.6309344 Z M17.4670558,32.7442808 C17.4814706,32.9123924 17.4773529,33.0835421 17.5144118,33.24659 C17.8561765,34.7474413 19.2294118,35.7176272 20.9773529,35.663953 C22.3516176,35.6224315 23.3429412,35.0117613 23.8977941,33.9392906 C24.4444118,32.8830235 24.2827941,31.8561252 23.4664706,30.9244227 C23.3326471,30.771502 23.1854412,30.6246575 23.0752941,30.4585714 C22.4813235,29.5633268 21.8955882,28.665044 21.3129412,27.7647358 C21.1482353,27.5105431 20.93,27.3464824 20.58,27.3566096 C20.2186765,27.3667368 20.0025,27.5459883 19.8614706,27.8224609 C19.6514706,28.2366634 19.4394118,28.6518787 19.2139706,29.0600049 C18.8516176,29.7172603 18.5211765,30.3917319 18.0980882,31.017593 C17.7305882,31.5614237 17.4660294,32.1082926 17.4670558,32.7442808 Z" id="Shape"></path>
                        <path d="M20.6767647,29.465093 C20.6088235,29.5805431 20.5666176,29.6534589 20.5244118,29.725362 C20.0930882,30.463635 19.7801471,31.2484932 19.2417647,31.9462573 C18.7373529,32.5994618 18.9555882,33.4704012 19.6597059,33.9929648 C20.3082353,34.4729941 21.3016176,34.4810959 21.9810294,34.010181 C22.6830882,33.5230626 22.9013235,32.6693395 22.4617647,31.990817 C22.26,31.6799119 21.9717647,31.4125538 21.7586765,31.1067123 C21.3942647,30.583136 21.0566176,30.0443689 20.6767647,29.465093 Z" id="Path"></path>
                        <path d="M20.6767647,29.465093 C21.0566176,30.0443689 21.3932353,30.583136 21.7586765,31.1067123 C21.9717647,31.4125538 22.26,31.6799119 22.4617647,31.990817 C22.9013235,32.6693395 22.6830882,33.5230626 21.9810294,34.010181 C21.3026471,34.4810959 20.3082353,34.4729941 19.6597059,33.9929648 C18.9545588,33.4704012 18.7363235,32.5994618 19.2417647,31.9462573 C19.7801471,31.2484932 20.0941176,30.463635 20.5244118,29.725362 C20.5666176,29.6534589 20.6088235,29.5805431 20.6767647,29.465093 Z" id="Path"></path>
                    </g>
                    <ellipse id="Oval" cx="15.1138235" cy="27.2188796" rx="1.11588235" ry="1"></ellipse>
                    <ellipse id="Oval" cx="26.4085294" cy="27.2188796" rx="1.11588235" ry="1"></ellipse>
                    <ellipse id="Oval" cx="18.2" cy="20.6827838" rx="1.11588235" ry="1"></ellipse>
                    <ellipse id="Oval" cx="21.9429412" cy="20.6827838" rx="1.11588235" ry="1"></ellipse>
                    <polygon id="Path" points="14.2923529 30.5983268 13.4101471 29.8276468 14.2923529 29.0579795 15.1745588 29.8276468"></polygon>
                    <polygon id="Path" points="27.6932353 30.5983268 26.8110294 29.8276468 27.6932353 29.0579795 28.5754412 29.8276468"></polygon>
                    <polygon id="Path" points="11.1608824 26.1595744 10.2786765 25.389907 11.1608824 24.619227 12.0430882 25.389907"></polygon>
                    <polygon id="Path" points="29.5420588 26.1595744 28.6598529 25.389907 29.5420588 24.619227 30.4242647 25.389907"></polygon>
                </g>
                <g transform="translate(12.147059, 0.000000)" id="Shape">
                    <path d="M2.9925,7.44956947 C4.68073529,7.88098826 5.61338235,9.00814579 5.46,10.3601272 C5.30352941,11.7394521 4.20308824,12.7825538 2.88132353,12.8028082 C1.34441176,12.8271135 0.251176471,11.8994618 0.0267647059,10.3813943 C-0.166764706,9.0739726 0.773088235,7.93061155 2.47161765,7.44551859 C1.81794118,7.22069472 1.41235294,6.81560665 1.40205882,6.13809687 C1.39279412,5.53957926 1.70058824,5.11930039 2.27602941,4.86308219 C2.01661765,4.42356164 1.97647059,4.0296135 2.45926471,3.71364481 C2.52411765,3.67111057 2.52823529,3.51515166 2.53132353,3.41084149 C2.53955882,3.03816047 2.54470588,2.66446673 2.53132353,2.29077299 C2.52308824,2.05177104 2.5725,1.89682485 2.8525,1.85732877 C3.24676471,1.80264188 3.45367647,1.53325832 3.44029412,1.1656409 C3.42794118,0.819290607 3.20764706,0.576237769 2.83911765,0.51952544 C2.47882353,0.463825832 2.19367647,0.683586106 2.05161765,1.06335616 C2.00529412,1.1858953 1.87558824,1.27805284 1.78397059,1.38438845 C1.74279412,1.23248043 1.63676471,1.0653816 1.66970588,0.930689824 C1.80352941,0.38584638 2.2225,0.0891193738 2.77220588,0.0992465753 C3.30647059,0.108361057 3.72647059,0.45268591 3.84691176,0.979300391 C3.955,1.4522407 3.71102941,1.9342955 3.23544118,2.18139922 C3.15,2.2259589 3.0625,2.26545499 2.95647059,2.31710372 C2.95647059,2.70092466 2.95132353,3.08778376 2.96058824,3.47363014 C2.96264706,3.56173679 2.98632353,3.68731409 3.04705882,3.72883562 C3.50823529,4.04176614 3.47838235,4.42356164 3.20764706,4.84890411 C3.79647059,5.12942759 4.12794118,5.56590998 4.08882353,6.1998728 C4.04661765,6.83889922 3.65647059,7.22575832 2.9925,7.44956947 Z M2.53235294,9.51248043 C2.55397059,9.13777397 2.25852941,8.822818 1.8725,8.80560176 C1.47617647,8.78838552 1.16117647,9.06080724 1.14161765,9.43956458 C1.12205882,9.81528376 1.41647059,10.1332779 1.79838235,10.1494814 C2.1875,10.1656849 2.51073529,9.88516145 2.53235294,9.51248043 Z M2.1875,6.41254403 C2.25132353,6.41355675 2.31617647,6.41456947 2.38,6.41558219 C2.50661765,6.24949609 2.70941176,6.09657534 2.74132353,5.91529843 C2.78970588,5.64085127 2.57970588,5.43931996 2.29455882,5.4362818 C2.01044118,5.43324364 1.79632353,5.62262231 1.84676471,5.90618395 C1.87867647,6.08847358 2.06911765,6.24443249 2.1875,6.41254403 Z"></path>
                    <path d="M14.6526471,7.44855675 C13.9835294,7.22272016 13.5985294,6.83079746 13.5614706,6.1948092 C13.5244118,5.5618591 13.8620588,5.12841487 14.4241176,4.85801859 C14.1585294,4.32026419 14.1904412,4.15822896 14.5754412,3.75111546 C14.6485294,3.67414873 14.6845588,3.53641879 14.6886765,3.42501957 C14.7020588,3.03816047 14.7041176,2.65028865 14.6897059,2.26342955 C14.6814706,2.03556751 14.7452941,1.91505382 14.9923529,1.85935421 C15.4123529,1.76517123 15.6552941,1.47350783 15.6017647,1.14336106 C15.5461765,0.798023483 15.3454412,0.561046967 14.9727941,0.51851272 C14.6104412,0.476991194 14.3366176,0.699789628 14.2007353,1.08766145 C14.1605882,1.20209883 14.0422059,1.2912182 13.9598529,1.3914775 C13.9073529,1.25374755 13.7920588,1.10690313 13.8126471,0.981325832 C13.9001471,0.457749511 14.3438235,0.110386497 14.8780882,0.101272016 C15.4360294,0.0921575342 15.8601471,0.418253425 16.0063235,0.97119863 C16.1226471,1.4117319 15.8848529,1.92113014 15.4452941,2.16013209 C15.3475,2.21380626 15.2425,2.25431507 15.1138235,2.31305284 C15.1138235,2.70193738 15.1076471,3.10196184 15.1189706,3.5019863 C15.1210294,3.58604207 15.1652941,3.68832681 15.225,3.75010274 C15.6202941,4.16633072 15.6532353,4.34558219 15.3938235,4.83067515 C16.6383824,5.49805773 16.4829412,7.01713796 15.1426471,7.46070939 C16.0073529,7.61869374 16.6826471,7.96301859 17.1386765,8.62736301 C17.5926471,9.28866928 17.7367647,10.0137769 17.5442647,10.7976223 C17.2292647,12.0777006 16.0145588,12.9030675 14.5898529,12.7997701 C13.3452941,12.709638 12.2952941,11.624002 12.1841176,10.3115166 C12.0708824,8.96054795 12.9777941,7.88605186 14.6526471,7.44855675 Z M14.0061765,10.1484687 C14.3942647,10.1434051 14.6989706,9.84060176 14.6938235,9.4658953 C14.6886765,9.08916341 14.3808824,8.80155088 13.9855882,8.80356569 C13.6016176,8.80560176 13.2876471,9.11549413 13.2927941,9.48513699 C13.2979412,9.85072896 13.6232353,10.1535323 14.0061765,10.1484687 Z M14.3242647,6.41051859 C14.3922059,6.41355675 14.4601471,6.41558219 14.5270588,6.41862035 C14.6598529,6.24443249 14.8997059,6.06619374 14.8945588,5.89605675 C14.8894118,5.73604697 14.6464706,5.48894325 14.4704412,5.4514726 C14.2027941,5.39374755 13.9691176,5.60236791 14.0092647,5.88998043 C14.035,6.07328278 14.2130882,6.23734344 14.3242647,6.41051859 Z"></path>
                </g>
            </g>
            <g id="Group" transform="translate(0.000000, 46.000000)">
                <path d="M4.71391597,9.878 L4.71391597,5.346 C4.71391597,5.061 4.67290756,4.82 4.59191597,4.623 C4.51092437,4.426 4.40840336,4.264 4.28537815,4.137 C4.16235294,4.01 4.026,3.912 3.87734454,3.842 C3.72868908,3.771 3.58721008,3.721 3.45188235,3.689 C3.31655462,3.657 3.19968067,3.639 3.10023529,3.634 C3.00078992,3.629 2.93620168,3.627 2.90852101,3.627 C2.62043697,3.627 2.37643697,3.667 2.17652101,3.746 C1.97660504,3.825 1.81154622,3.926 1.68236975,4.048 C1.55216807,4.17 1.45169748,4.303 1.37890756,4.446 C1.30714286,4.589 1.25383193,4.723 1.21897479,4.85 C1.18411765,4.977 1.16258824,5.087 1.15643697,5.18 C1.1492605,5.272 1.14618487,5.328 1.14618487,5.346 L1.14618487,9.878 L0.0317815126,9.878 L0.0317815126,2.587 L1.14618487,2.587 L1.14618487,3.606 C1.15131092,3.474 1.18104202,3.358 1.23640336,3.256 C1.29176471,3.154 1.36147899,3.065 1.44554622,2.991 C1.52961345,2.916 1.62393277,2.854 1.73157983,2.804 C1.83922689,2.754 1.94482353,2.711 2.05247059,2.675 C2.3077479,2.593 2.59583193,2.549 2.91672269,2.539 L3.17405042,2.539 C3.59643697,2.539 3.9552605,2.594 4.25052101,2.705 C4.54578151,2.816 4.79080672,2.959 4.98559664,3.134 C5.18038655,3.308 5.33519328,3.502 5.4489916,3.715 C5.56278992,3.928 5.64788235,4.135 5.7032437,4.337 C5.75963025,4.539 5.79346218,4.722 5.80781513,4.887 C5.82216807,5.052 5.82831933,5.176 5.82831933,5.258 L5.82831933,5.346 L5.82831933,9.878 L4.71391597,9.878 Z" id="Path"></path>
                <path d="M13.0242689,7.364 C12.9822353,7.858 12.8499832,8.295 12.6275126,8.676 C12.5342185,8.839 12.4163193,8.999 12.2727899,9.155 C12.1292605,9.311 11.9539496,9.45 11.7499328,9.573 C11.545916,9.696 11.3080672,9.794 11.0363866,9.869 C10.7647059,9.944 10.4520168,9.981 10.0993445,9.981 C9.74154622,9.981 9.42680672,9.944 9.15512605,9.869 C8.88344538,9.794 8.64559664,9.695 8.44055462,9.573 C8.23551261,9.451 8.06327731,9.312 7.92179832,9.155 C7.78031933,8.998 7.66344538,8.839 7.57015126,8.676 C7.34768067,8.295 7.21440336,7.858 7.17236975,7.364 L7.17236975,5.89 L9.26277311,5.89 L9.26277311,6.909 L8.28779832,6.909 L8.28779832,7.364 C8.28779832,7.563 8.31342857,7.74 8.36468908,7.894 C8.41594958,8.048 8.48463866,8.18 8.5707563,8.292 C8.65687395,8.403 8.75426891,8.497 8.86396639,8.574 C8.97263866,8.652 9.08336134,8.715 9.19510924,8.765 C9.45961345,8.883 9.76205042,8.948 10.1003697,8.962 C10.4397143,8.948 10.7411261,8.883 11.0056303,8.765 C11.1173782,8.715 11.2270756,8.652 11.3367731,8.574 C11.4454454,8.497 11.5428403,8.403 11.628958,8.292 C11.7150756,8.181 11.7837647,8.048 11.8350252,7.894 C11.8862857,7.74 11.911916,7.563 11.911916,7.364 L11.911916,5.156 C11.911916,4.966 11.8862857,4.798 11.8350252,4.653 C11.7837647,4.508 11.7150756,4.381 11.628958,4.273 C11.5428403,4.164 11.4454454,4.074 11.3367731,4.001 C11.2270756,3.929 11.1173782,3.867 11.0056303,3.817 C10.7411261,3.704 10.4386891,3.641 10.1003697,3.627 L10.0101513,3.627 C9.93121008,3.627 9.81536134,3.64 9.66157983,3.664 C9.50882353,3.689 9.34684034,3.74 9.17768067,3.817 C9.00852101,3.894 8.84653782,4.004 8.69378151,4.147 C8.54102521,4.289 8.42620168,4.481 8.35238655,4.721 L7.23798319,4.721 C7.26566387,4.599 7.30769748,4.46 7.36305882,4.303 C7.41842017,4.147 7.49531092,3.987 7.59270588,3.824 C7.69010084,3.661 7.81005042,3.502 7.95152941,3.348 C8.0930084,3.194 8.2652437,3.057 8.46721008,2.937 C8.66917647,2.817 8.90497479,2.72 9.17460504,2.648 C9.44423529,2.576 9.75282353,2.539 10.101395,2.539 C10.4540672,2.539 10.7667563,2.576 11.038437,2.651 C11.3101176,2.726 11.5479664,2.825 11.7519832,2.95 C11.956,3.075 12.1302857,3.215 12.2748403,3.372 C12.4183697,3.528 12.5372941,3.688 12.629563,3.851 C12.8520336,4.232 12.9842857,4.667 13.0263193,5.156 L13.0263193,7.364 L13.0242689,7.364 Z" id="Path"></path>
                <path d="M15.0869916,2.581 L17.260437,2.581 L17.260437,7.84 C17.260437,8.189 17.2153277,8.485 17.1251092,8.727 C17.0348908,8.969 16.9210924,9.169 16.7837143,9.328 C16.6463361,9.487 16.4956303,9.61 16.3305714,9.699 C16.1655126,9.787 16.0086555,9.852 15.86,9.893 C15.7113445,9.934 15.5821681,9.958 15.4734958,9.968 C15.3637983,9.977 15.2951092,9.982 15.2674286,9.982 C14.9465378,9.982 14.6728067,9.941 14.4452101,9.86 C14.2176134,9.778 14.0269244,9.688 13.8741681,9.588 C13.6927059,9.47 13.542,9.339 13.4210252,9.194 L14.1735294,8.48 C14.1971092,8.502 14.235042,8.54 14.2883529,8.592 C14.3416639,8.644 14.4113782,8.697 14.4974958,8.752 C14.5836134,8.807 14.6902353,8.855 14.8183866,8.898 C14.9465378,8.941 15.0962185,8.963 15.2674286,8.963 C15.3740504,8.963 15.4683697,8.947 15.5493613,8.915 C15.6303529,8.883 15.7021176,8.841 15.7656807,8.789 C15.8282185,8.737 15.8805042,8.677 15.9225378,8.609 C15.9645714,8.541 15.9994286,8.473 16.0271092,8.405 C16.0916975,8.242 16.1316807,8.054 16.1450084,7.841 L16.1450084,3.6 L15.0859664,3.6 L15.0859664,2.581 L15.0869916,2.581 Z" id="Path"></path>
                <path d="M24.316958,7.364 C24.2749244,7.858 24.1426723,8.295 23.9202017,8.676 C23.8269076,8.839 23.7090084,8.999 23.565479,9.155 C23.4219496,9.311 23.2466387,9.45 23.0426218,9.573 C22.838605,9.696 22.6007563,9.794 22.3290756,9.869 C22.057395,9.944 21.7447059,9.981 21.3920336,9.981 C21.0342353,9.981 20.7194958,9.944 20.4478151,9.869 C20.1761345,9.794 19.9382857,9.695 19.7332437,9.573 C19.5282017,9.451 19.3559664,9.312 19.2144874,9.155 C19.0730084,8.999 18.9561345,8.839 18.8628403,8.676 C18.6403697,8.295 18.5070924,7.858 18.4650588,7.364 L18.4650588,5.89 L20.5554622,5.89 L20.5554622,6.909 L19.5804874,6.909 L19.5804874,7.364 C19.5804874,7.563 19.6061176,7.74 19.6573782,7.894 C19.7086387,8.048 19.7773277,8.18 19.8634454,8.292 C19.949563,8.403 20.046958,8.497 20.1566555,8.574 C20.2653277,8.652 20.3760504,8.715 20.4877983,8.765 C20.7523025,8.883 21.0547395,8.948 21.3930588,8.962 C21.7324034,8.948 22.0338151,8.883 22.2983193,8.765 C22.4100672,8.715 22.5197647,8.652 22.6294622,8.574 C22.7381345,8.497 22.8355294,8.403 22.9216471,8.292 C23.0077647,8.181 23.0764538,8.048 23.1277143,7.894 C23.1789748,7.74 23.204605,7.563 23.204605,7.364 L23.204605,5.156 C23.204605,4.966 23.1789748,4.798 23.1277143,4.653 C23.0764538,4.508 23.0077647,4.381 22.9216471,4.273 C22.8355294,4.164 22.7381345,4.074 22.6294622,4.001 C22.5197647,3.929 22.4100672,3.867 22.2983193,3.817 C22.0338151,3.704 21.7313782,3.641 21.3930588,3.627 L21.3028403,3.627 C21.2238992,3.627 21.1080504,3.64 20.9542689,3.664 C20.8015126,3.689 20.6395294,3.74 20.4703697,3.817 C20.3012101,3.894 20.1392269,4.004 19.9864706,4.147 C19.8337143,4.289 19.7188908,4.481 19.6450756,4.721 L18.5306723,4.721 C18.5583529,4.599 18.6003866,4.46 18.6557479,4.303 C18.7111092,4.147 18.788,3.987 18.885395,3.824 C18.9827899,3.661 19.1027395,3.502 19.2442185,3.348 C19.3856975,3.194 19.5579328,3.057 19.7598992,2.937 C19.9618655,2.817 20.1976639,2.72 20.4672941,2.648 C20.7369244,2.576 21.0455126,2.539 21.394084,2.539 C21.7467563,2.539 22.0594454,2.576 22.3311261,2.651 C22.6028067,2.726 22.8406555,2.825 23.0446723,2.95 C23.2486891,3.075 23.4229748,3.215 23.5675294,3.372 C23.7110588,3.528 23.8299832,3.688 23.9222521,3.851 C24.1447227,4.232 24.2769748,4.667 24.3190084,5.156 L24.3190084,7.364 L24.316958,7.364 Z" id="Path"></path>
                <path d="M26.4770756,2.54 C26.5047563,2.54 26.5734454,2.543 26.6831429,2.55 C26.7918151,2.557 26.9209916,2.58 27.0696471,2.618 C27.2183025,2.656 27.3731092,2.719 27.5361176,2.805 C27.6991261,2.891 27.8488067,3.014 27.9851597,3.172 C28.1225378,3.331 28.2363361,3.532 28.3265546,3.776 C28.4167731,4.021 28.4629076,4.322 28.4629076,4.68 L28.4629076,9.878 L27.3485042,9.878 L27.3485042,4.68 C27.3392773,4.485 27.3023697,4.311 27.2367563,4.157 C27.2090756,4.089 27.1742185,4.023 27.1321849,3.96 C27.0901513,3.896 27.039916,3.84 26.9794286,3.79 C26.9189412,3.74 26.8482017,3.7 26.7672101,3.671 C26.6862185,3.642 26.5918992,3.627 26.4852773,3.627 C26.2997143,3.627 26.1428571,3.649 26.0147059,3.691 C25.8865546,3.734 25.780958,3.783 25.697916,3.838 C25.6138487,3.892 25.5482353,3.945 25.4990252,3.998 C25.4508403,4.05 25.414958,4.087 25.3913782,4.11 L24.6255462,3.329 C24.746521,3.184 24.8972269,3.053 25.0786891,2.935 C25.2324706,2.835 25.4231597,2.745 25.6538319,2.663 C25.8814286,2.581 26.1561849,2.54 26.4770756,2.54 Z" id="Path"></path>
                <path d="M34.1958824,4.463 L33.7222353,4.164 C33.6063866,4.092 33.4761849,4.023 33.3316303,3.957 C33.1881008,3.892 33.042521,3.833 32.895916,3.783 C32.7493109,3.733 32.6119328,3.695 32.4817311,3.668 C32.3515294,3.641 32.2449076,3.627 32.1608403,3.627 C31.9845042,3.627 31.817395,3.642 31.6595126,3.671 C31.5016303,3.7 31.3622017,3.755 31.2412269,3.834 C31.1202521,3.913 31.0238824,4.022 30.9521176,4.16 C30.8803529,4.298 30.8444706,4.478 30.8444706,4.7 C30.8444706,4.922 30.9059832,5.095 31.0290084,5.22 C31.1520336,5.345 31.3119664,5.442 31.5098319,5.512 C31.7066723,5.583 31.9291429,5.636 32.1751933,5.672 C32.4212437,5.708 32.6672941,5.747 32.9133445,5.787 C33.159395,5.828 33.3962185,5.908 33.6238151,6.028 C33.8514118,6.148 34.0523529,6.296 34.2266387,6.473 C34.4009244,6.649 34.5403529,6.851 34.6449244,7.077 C34.7494958,7.304 34.8017815,7.544 34.8017815,7.797 C34.8017815,8.173 34.7320672,8.499 34.5926387,8.775 C34.4532101,9.051 34.2635462,9.279 34.0246723,9.458 C33.7857983,9.637 33.5048908,9.769 33.1819496,9.856 C32.8590084,9.942 32.5165882,9.985 32.1546891,9.985 C31.6441345,9.985 31.2084202,9.93 30.8485714,9.819 C30.4887227,9.708 30.1903866,9.585 29.953563,9.448 C29.6798319,9.294 29.4522353,9.115 29.2707731,8.911 L30.0089244,8.204 C30.0970924,8.29 30.2160168,8.378 30.3636471,8.469 C30.5123025,8.56 30.680437,8.641 30.8690756,8.714 C31.0577143,8.786 31.2596807,8.846 31.4749748,8.89 C31.6912941,8.935 31.9127395,8.958 32.1403361,8.958 C32.3730588,8.958 32.5822017,8.929 32.7708403,8.873 C32.959479,8.816 33.1194118,8.736 33.2516639,8.632 C33.383916,8.528 33.4854118,8.406 33.5551261,8.265 C33.6248403,8.125 33.6596975,7.969 33.6596975,7.796 C33.6596975,7.62 33.6289412,7.475 33.569479,7.365 C33.5089916,7.254 33.4382521,7.167 33.3572605,7.104 C33.2762689,7.04 33.1932269,6.996 33.1101849,6.971 C33.0271429,6.946 32.9615294,6.929 32.915395,6.92 C32.8969412,6.916 32.8210756,6.903 32.6888235,6.883 C32.5565714,6.863 32.4068908,6.839 32.2397815,6.812 C32.0726723,6.785 31.905563,6.757 31.7384538,6.73 C31.5713445,6.703 31.4462689,6.681 31.3622017,6.662 C31.3068403,6.653 31.2278992,6.634 31.1253782,6.604 C31.0228571,6.575 30.910084,6.532 30.788084,6.475 C30.6650588,6.418 30.5399832,6.343 30.4118319,6.25 C30.2836807,6.158 30.1678319,6.04 30.0632605,5.897 C29.9586891,5.755 29.8746218,5.584 29.8090084,5.387 C29.7444202,5.19 29.7116134,4.96 29.7116134,4.698 C29.7116134,4.304 29.7833782,3.97 29.9279328,3.695 C30.0714622,3.421 30.2601008,3.198 30.4917983,3.026 C30.724521,2.854 30.9869748,2.73 31.2791597,2.653 C31.5723697,2.576 31.866605,2.538 32.163916,2.538 C32.4704538,2.538 32.7503361,2.572 33.003563,2.64 C33.2567899,2.708 33.4761849,2.781 33.6617479,2.858 C33.8801176,2.948 34.0749076,3.053 34.2471429,3.171 L34.8181849,3.551 L34.1958824,4.463 Z" id="Path"></path>
                <path d="M41.6983697,2.588 L41.6983697,7.12 L41.6983697,7.208 C41.6983697,7.29 41.6922185,7.414 41.6778655,7.582 C41.6635126,7.749 41.6276303,7.936 41.5702185,8.142 C41.5117815,8.348 41.4266891,8.56 41.3159664,8.777 C41.2042185,8.995 41.0494118,9.192 40.8525714,9.368 C40.6557311,9.545 40.4086555,9.691 40.1144202,9.806 C39.8191597,9.921 39.4603361,9.979 39.0379496,9.979 L38.7806218,9.979 C38.4638319,9.956 38.1788235,9.901 37.9235462,9.816 C37.8158992,9.78 37.7092773,9.734 37.6026555,9.68 C37.4950084,9.626 37.4006891,9.56 37.3166218,9.483 C37.2325546,9.406 37.1638655,9.316 37.107479,9.215 C37.0510924,9.113 37.0213613,8.994 37.0172605,8.858 L37.0172605,9.877 L35.9028571,9.877 L35.9028571,2.586 L37.0172605,2.586 L37.0172605,7.118 C37.0172605,7.136 37.0203361,7.196 37.0275126,7.295 C37.0346891,7.394 37.0551933,7.512 37.0900504,7.648 C37.1249076,7.784 37.1782185,7.929 37.2499832,8.083 C37.3217479,8.237 37.4222185,8.378 37.5524202,8.508 C37.6826218,8.637 37.8476807,8.745 38.0475966,8.831 C38.2475126,8.917 38.4915126,8.96 38.7795966,8.96 C38.8072773,8.96 38.8708403,8.957 38.9713109,8.95 C39.0707563,8.943 39.1876303,8.923 39.322958,8.889 C39.4582857,8.855 39.5987395,8.802 39.7484202,8.729 C39.8970756,8.657 40.0324034,8.553 40.1564538,8.416 C40.279479,8.28 40.3809748,8.107 40.4629916,7.897 C40.5439832,7.686 40.5849916,7.427 40.5849916,7.119 L40.5849916,2.587 L41.6983697,2.587 L41.6983697,2.588 Z" id="Path"></path>
                <path d="M53.6031092,2.588 L53.6031092,9.872 L52.4958824,9.872 L52.4958824,8.86 C52.4866555,8.996 52.4538487,9.115 52.3984874,9.217 C52.3431261,9.319 52.2734118,9.408 52.1893445,9.485 C52.1052773,9.562 52.010958,9.628 51.9033109,9.682 C51.7966891,9.737 51.6900672,9.782 51.5824202,9.818 C51.3271429,9.9 51.0421345,9.951 50.7263697,9.974 L50.4680168,9.974 C50.044605,9.974 49.6868067,9.917 49.3915462,9.804 C49.0962857,9.691 48.8502353,9.545 48.653395,9.366 C48.4565546,9.187 48.3017479,8.989 48.19,8.771 C48.0782521,8.554 47.9941849,8.343 47.9357479,8.139 C47.8773109,7.936 47.8414286,7.749 47.8270756,7.582 C47.8137479,7.414 47.8065714,7.29 47.8065714,7.208 C47.8065714,7.149 47.8086218,7.12 47.8137479,7.12 L47.8137479,5.36 C47.8137479,5.07 47.7727395,4.827 47.6917479,4.63 C47.6107563,4.433 47.5051597,4.27 47.3780336,4.141 C47.2498824,4.012 47.111479,3.913 46.9638487,3.846 C46.8151933,3.778 46.6726891,3.727 46.5353109,3.693 C46.398958,3.659 46.2800336,3.64 46.1805882,3.636 C46.0811429,3.631 46.0165546,3.629 45.9888739,3.629 C45.7664034,3.629 45.5685378,3.654 45.3973277,3.704 C45.2250924,3.754 45.0754118,3.819 44.9482857,3.901 C44.8211597,3.983 44.7135126,4.076 44.627395,4.18 C44.5412773,4.285 44.4705378,4.391 44.4151765,4.499 C44.2849748,4.753 44.2111597,5.04 44.1927059,5.362 L44.1927059,7.604 C44.2060336,7.844 44.2593445,8.055 44.3526387,8.236 C44.3946723,8.313 44.4449076,8.389 44.505395,8.464 C44.5658824,8.539 44.6396975,8.606 44.7278655,8.665 C44.8160336,8.724 44.920605,8.772 45.0415798,8.808 C45.1625546,8.844 45.3019832,8.862 45.4598655,8.862 L46.2749076,8.862 L46.2749076,9.874 L44.7770756,9.874 C44.4613109,9.852 44.1783529,9.763 43.9271765,9.609 C43.8205546,9.541 43.7159832,9.456 43.6134622,9.354 C43.5109412,9.252 43.4207227,9.126 43.3417815,8.977 C43.2618151,8.828 43.1982521,8.654 43.1500672,8.454 C43.1018824,8.255 43.0772773,8.021 43.0772773,7.754 L43.0772773,7.605 L43.0772773,4.296 C43.2259328,4.02 43.3920168,3.784 43.5755294,3.589 C43.759042,3.394 43.9476807,3.232 44.139395,3.103 C44.3321345,2.974 44.5217983,2.871 44.710437,2.794 C44.8980504,2.717 45.0723361,2.66 45.2332941,2.621 C45.3932269,2.583 45.5336807,2.558 45.6546555,2.55 C45.7756303,2.541 45.8658487,2.536 45.9263361,2.536 L45.9888739,2.536 C46.4717479,2.55 46.8797815,2.624 47.2119496,2.76 C47.5430924,2.896 47.8188739,3.063 48.0372437,3.26 C48.2556134,3.456 48.4247731,3.671 48.5457479,3.902 C48.6667227,4.133 48.7538655,4.351 48.8102521,4.555 C48.8666387,4.758 48.8994454,4.935 48.9117479,5.085 C48.9230252,5.234 48.9291765,5.327 48.9291765,5.364 L48.9291765,7.124 C48.9291765,7.433 48.9701849,7.692 49.0511765,7.902 C49.1321681,8.112 49.2346891,8.286 49.3577143,8.421 C49.4797143,8.557 49.615042,8.661 49.7616471,8.734 C49.9082521,8.807 50.0487059,8.86 50.1830084,8.894 C50.3183361,8.928 50.4352101,8.949 50.5346555,8.955 C50.6351261,8.962 50.6986891,8.965 50.7263697,8.965 C51.0134286,8.965 51.2574286,8.922 51.4573445,8.836 C51.6572605,8.75 51.8233445,8.642 51.9555966,8.513 C52.0878487,8.384 52.1903697,8.242 52.2621345,8.088 C52.3338992,7.934 52.3872101,7.789 52.4220672,7.653 C52.4569244,7.517 52.4774286,7.399 52.484605,7.3 C52.4917815,7.201 52.4948571,7.141 52.4948571,7.123 L52.4948571,2.591 L53.6031092,2.591 L53.6031092,2.588 Z" id="Path"></path>
                <path d="M50.7335462,1.69 L50.7335462,0.61 C50.7386723,0.524 50.7622521,0.445 50.8032605,0.372 C50.8360672,0.308 50.8852773,0.252 50.9529412,0.202 C51.020605,0.152 51.1138992,0.127 51.2348739,0.127 L53.6871765,0.127 L53.6871765,1.146 L51.7782353,1.146 L51.7782353,1.689 L50.7335462,1.689 L50.7335462,1.69 Z" id="Path"></path>
                <path d="M59.8097311,9.878 L59.8097311,5.292 C59.7871765,4.984 59.7031092,4.708 59.5595798,4.463 C59.4990924,4.359 59.4222017,4.257 59.3289076,4.157 C59.2356134,4.057 59.1218151,3.967 58.9875126,3.888 C58.8521849,3.809 58.6963529,3.746 58.5169412,3.698 C58.3385546,3.65 58.130437,3.627 57.8936134,3.627 C57.6567899,3.627 57.4486723,3.651 57.2702857,3.698 C57.0918992,3.746 56.9360672,3.809 56.8038151,3.888 C56.671563,3.967 56.5587899,4.057 56.4654958,4.157 C56.3722017,4.256 56.2963361,4.359 56.2358487,4.463 C56.0912941,4.708 56.0082521,4.984 55.9846723,5.292 L55.9846723,7.684 C56.0031261,7.838 56.0379832,7.985 56.0892437,8.126 C56.1312773,8.248 56.1876639,8.373 56.2594286,8.499 C56.3322185,8.626 56.427563,8.728 56.5485378,8.805 C56.7012941,8.909 56.8530252,8.961 57.0016807,8.961 C57.1370084,8.961 57.256958,8.931 57.3635798,8.873 C57.4702017,8.814 57.5563193,8.753 57.6219328,8.689 L58.3467563,9.409 C58.2350084,9.518 58.1099328,9.613 57.9705042,9.695 C57.8495294,9.767 57.7049748,9.833 57.5347899,9.892 C57.3656303,9.951 57.1759664,9.98 56.9668235,9.98 C56.9012101,9.98 56.8335462,9.977 56.7607563,9.97 C56.6889916,9.963 56.6151765,9.95 56.5413613,9.933 C56.2717311,9.87 56.0328571,9.764 55.8237143,9.617 C55.6145714,9.47 55.4392605,9.295 55.2977815,9.094 C55.1563025,8.892 55.0496807,8.671 54.9768908,8.428 C54.9051261,8.186 54.8692437,7.938 54.8692437,7.684 L54.8692437,5.292 C54.9112773,4.857 55.0014958,4.487 55.1409244,4.181 C55.2803529,3.875 55.4443866,3.621 55.6361008,3.42 C55.8267899,3.219 56.0308067,3.059 56.2491765,2.941 C56.4675462,2.823 56.6787395,2.736 56.8827563,2.679 C57.0867731,2.623 57.2702857,2.587 57.4332941,2.57 C57.5963025,2.554 57.7162521,2.546 57.7951933,2.546 L57.8925882,2.546 L57.9828067,2.546 C58.0617479,2.546 58.1827227,2.553 58.3447059,2.57 C58.5077143,2.586 58.6902017,2.622 58.8952437,2.679 C59.0992605,2.736 59.3125042,2.823 59.5329244,2.941 C59.7533445,3.059 59.9594118,3.218 60.1501008,3.42 C60.3407899,3.622 60.5048235,3.876 60.6452773,4.181 C60.7847059,4.487 60.8769748,4.857 60.9241345,5.292 L60.9241345,9.878 L59.8097311,9.878 L59.8097311,9.878 Z" id="Path"></path>
                <polygon id="Path" points="60.1172941 0.053 60.1172941 1.724 55.9508403 1.724 55.9508403 0.705 59.0715798 0.705 59.0715798 0.053"></polygon>
            </g>
            <g id="Group" transform="translate(1.000000, 60.000000)">
                <g transform="translate(16.196944, 0.000000)">
                    <path d="M1.80916808,1.26854237 L2.37351443,1.26854237 L1.34363328,2.19386441 C1.72258065,2.26433898 2.38064516,2.48308475 2.38064516,3.26013559 L2.38064516,4.03077966 L1.95178268,4.03077966 L1.95178268,3.34983051 C1.95178268,2.6240339 1.32224109,2.42450847 1.11544992,2.39247458 L0.450254669,3.00294915 L0.450254669,4.03077966 L0.0213921902,4.03077966 L0.0213921902,1.26854237 L0.450254669,1.26854237 L0.450254669,2.48949153 L1.80916808,1.26854237 Z" id="Path"></path>
                    <path d="M2.51714771,0.787118644 L1.44448217,0.787118644 C1.22342954,0.787118644 1.08692699,0.658067797 1.08692699,0.529932203 C1.08692699,0.420101695 1.01561969,0.40179661 0.958573854,0.40179661 L0.729371817,0.40179661 L0.729371817,0.0805423729 L1.2295416,0.0805423729 C1.3721562,0.0805423729 1.51578947,0.208677966 1.51578947,0.336813559 C1.51578947,0.40820339 1.57996604,0.465864407 1.65840407,0.465864407 L2.64550085,0.465864407 L2.51714771,0.787118644 Z" id="Path"></path>
                    <path d="M3.01120543,1.33261017 C3.14770798,1.26213559 3.34023769,1.20447458 3.59083192,1.20447458 C4.14091681,1.20447458 4.80611205,1.51932203 4.80611205,2.23230508 L4.80611205,4.03077966 L4.37724958,4.03077966 L4.37724958,2.29637288 C4.37724958,1.75728814 3.96977929,1.52572881 3.51850594,1.52572881 C3.29745331,1.52572881 3.11816638,1.58338983 2.99694397,1.65386441 C2.91850594,1.69322034 2.85432937,1.73715254 2.80441426,1.78291525 L2.80441426,1.46166102 C2.86044143,1.41589831 2.9327674,1.3719661 3.01120543,1.33261017 Z" id="Path"></path>
                    <path d="M5.2278438,2.16823729 L5.65670628,2.16823729 L6.08556876,3.70952542 C6.59286927,3.70952542 7.08692699,3.29216949 7.08692699,2.64966102 C7.08692699,2.00715254 6.58675722,1.58979661 6.01426146,1.58979661 L6.01426146,1.26854237 C6.87198642,1.26854237 7.51578947,1.81494915 7.51578947,2.64966102 C7.51578947,3.48528814 6.78641766,4.03077966 6.08556876,4.03077966 L5.72801358,4.03077966 L5.2278438,2.16823729 Z" id="Path"></path>
                    <path d="M7.93752122,4.03169492 L7.93752122,1.26945763 L8.3663837,1.26945763 L8.3663837,1.65477966 C8.437691,1.57149153 8.52427844,1.50101695 8.63123939,1.43054237 C8.81052632,1.32162712 9.07436333,1.20538983 9.43904924,1.20538983 C10.089983,1.20538983 10.4404075,1.71884746 10.4404075,2.16915254 L10.4404075,4.03169492 L10.011545,4.03169492 L10.011545,2.36135593 C10.011545,1.84789831 9.79660441,1.59071186 9.22512733,1.59071186 C8.97453311,1.59071186 8.76061121,1.68681356 8.6098472,1.78383051 C8.52427844,1.84149153 8.44584041,1.90555932 8.3663837,1.9760339 L8.3663837,4.03169492 L7.93752122,4.03169492 L7.93752122,4.03169492 Z" id="Path"></path>
                    <path d="M11.0770798,1.65386441 C11.2482173,1.42962712 11.5843803,1.20447458 12.185399,1.20447458 C13.2224109,1.20447458 13.579966,2.00074576 13.579966,2.64966102 C13.579966,3.64545763 12.936163,4.08294915 12.185399,4.08294915 C11.434635,4.08294915 10.8621392,3.71044068 10.8621392,3.03589831 C10.8621392,2.75308475 10.9334465,2.61854237 11.2196944,2.61854237 L11.8634975,2.61854237 L11.8634975,2.93979661 L11.3989813,2.93979661 C11.327674,2.93979661 11.2920204,2.97183051 11.2920204,3.03589831 C11.2920204,3.39650847 11.4998302,3.77450847 12.1864177,3.77450847 C12.8658744,3.77450847 13.1521222,3.32511864 13.1521222,2.65057627 C13.1521222,2.00166102 12.7945671,1.52664407 12.1864177,1.52664407 C11.8074703,1.52664407 11.5925297,1.66850847 11.4570458,1.81586441 C11.3786078,1.89915254 11.321562,1.99525424 11.2848896,2.10508475 L10.8631579,2.10508475 C10.8977929,1.93667797 10.9691002,1.78932203 11.0770798,1.65386441 Z" id="Path"></path>
                    <path d="M13.8937182,2.16823729 L14.3225806,2.16823729 L14.7514431,3.70952542 C15.2587436,3.70952542 15.7528014,3.29216949 15.7528014,2.64966102 C15.7528014,2.00715254 15.2526316,1.58979661 14.6801358,1.58979661 L14.6801358,1.26854237 C15.5378608,1.26854237 16.1816638,1.81494915 16.1816638,2.64966102 C16.1816638,3.48528814 15.452292,4.03077966 14.7514431,4.03077966 L14.3938879,4.03077966 L13.8937182,2.16823729 Z" id="Path"></path>
                    <path d="M17.0332767,1.26854237 L17.0332767,3.58138983 C17.0332767,3.65186441 17.026146,3.70311864 17.104584,3.70952542 L17.3195246,3.70952542 L17.3195246,4.03077966 L17.0332767,4.03077966 C16.7470289,4.03077966 16.6044143,3.90905085 16.6044143,3.58138983 L16.6044143,1.26854237 L17.0332767,1.26854237 Z M18.2485569,1.26854237 L18.2485569,3.58138983 C18.2485569,3.65186441 18.2414261,3.70311864 18.3198642,3.70952542 L18.5337861,3.70952542 L18.5337861,4.03077966 L18.2485569,4.03077966 C17.962309,4.03077966 17.8196944,3.90905085 17.8196944,3.58138983 L17.8196944,1.26854237 L18.2485569,1.26854237 Z" id="Shape"></path>
                    <path d="M18.9565365,1.26854237 L19.385399,1.26854237 L19.385399,3.32420339 C19.4648557,3.39559322 19.5432937,3.45966102 19.6288625,3.51732203 C19.7786078,3.61342373 19.9935484,3.70952542 20.2441426,3.70952542 C20.8156197,3.70952542 21.0305603,3.45325424 21.0305603,2.93888136 L21.0305603,1.26854237 L21.4594228,1.26854237 L21.4594228,3.132 C21.4594228,3.57498305 21.1089983,4.08294915 20.4580645,4.08294915 C20.0933786,4.08294915 19.8285229,3.97311864 19.6502547,3.86511864 C19.542275,3.80013559 19.4567063,3.72966102 19.385399,3.64637288 L19.385399,4.03169492 L18.9565365,4.03169492 L18.9565365,1.26854237 L18.9565365,1.26854237 Z" id="Path"></path>
                    <polygon id="Path" points="21.0448217 0.0805423729 21.4747029 0.0805423729 21.4747029 0.787118644 21.0448217 0.787118644"></polygon>
                    <path d="M22.0960951,1.65386441 C22.2672326,1.42962712 22.6033956,1.20447458 23.2044143,1.20447458 C24.2404075,1.20447458 24.5979626,2.00074576 24.5979626,2.64966102 C24.5979626,3.64545763 23.9541596,4.08294915 23.2044143,4.08294915 C22.4536503,4.08294915 21.8811545,3.71044068 21.8811545,3.03589831 C21.8811545,2.75308475 21.9524618,2.61854237 22.2387097,2.61854237 L22.8825127,2.61854237 L22.8825127,2.93979661 L22.4169779,2.93979661 C22.3456706,2.93979661 22.310017,2.97183051 22.310017,3.03589831 C22.310017,3.39650847 22.5178268,3.77450847 23.2044143,3.77450847 C23.8828523,3.77450847 24.1691002,3.32511864 24.1691002,2.65057627 C24.1691002,2.00166102 23.811545,1.52664407 23.2044143,1.52664407 C22.8254669,1.52664407 22.6105263,1.66850847 22.4750424,1.81586441 C22.3966044,1.89915254 22.3395586,1.99525424 22.3039049,2.10508475 L21.8821732,2.10508475 C21.9168081,1.93667797 21.9891341,1.78932203 22.0960951,1.65386441 Z" id="Path"></path>
                    <path d="M24.0764007,5.4 L24.0764007,4.97532203 C24.0764007,4.89844068 24.0122241,4.82155932 23.9185059,4.82155932 L23.7188455,4.82155932 L23.7188455,4.50030508 L24.0193548,4.50030508 C24.3269949,4.50030508 24.5052632,4.67420339 24.5052632,4.95061017 L24.5052632,5.4 L24.0764007,5.4 Z" id="Path"></path>
                    <polygon id="Path" points="24.0764007 0.0805423729 24.5052632 0.0805423729 24.5052632 0.272745763 24.8485569 0.272745763 24.8485569 0.594 24.5052632 0.594 24.5052632 0.787118644 24.0764007 0.787118644 24.0764007 0.594 23.7188455 0.594 23.7188455 0.272745763 24.0764007 0.272745763"></polygon>
                    <path d="M25.2702886,2.61122034 C25.3782683,2.53983051 25.4923599,2.48949153 25.6278438,2.45745763 C25.5066214,2.43823729 25.3986418,2.39979661 25.306961,2.34762712 C25.1429542,2.25152542 24.9850594,2.10325424 24.9850594,1.8460678 C24.9850594,1.36372881 25.4139219,1.20355932 25.7001698,1.20355932 C25.878438,1.20355932 26.0078098,1.21637288 26.0862479,1.23559322 C26.136163,1.24840678 26.1718166,1.26122034 26.2013582,1.26762712 L26.2013582,1.58888136 C26.1728353,1.58247458 26.1371817,1.56966102 26.0943973,1.55684746 C26.0149406,1.53762712 25.9151104,1.52481356 25.7724958,1.52481356 C25.5504244,1.52481356 25.4149406,1.67216949 25.4149406,1.8460678 C25.4149406,2.12247458 25.7439728,2.29545763 26.2013582,2.29545763 L26.2013582,2.61671186 C25.6013582,2.61671186 25.3436333,3.0020339 25.3436333,3.22718644 C25.3436333,3.5420339 25.5147708,3.77267797 26.1157895,3.77267797 C26.7168081,3.77267797 26.9174873,3.39376271 26.9174873,3.11094915 L26.9174873,1.26671186 L27.3463497,1.26671186 L27.3463497,3.08532203 C27.3463497,3.58047458 27.0173175,4.08111864 26.1157895,4.08111864 C25.2152801,4.08111864 24.9147665,3.72142373 24.9147665,3.22627119 C24.9137521,2.9260678 25.0920204,2.73386441 25.2702886,2.61122034 Z" id="Path"></path>
                </g>
                <rect id="Rectangle" x="0.0407470289" y="2.37966102" width="14.6088285" height="1"></rect>
                <rect id="Rectangle" x="45.2251273" y="2.37966102" width="14.7616299" height="1"></rect>
            </g>
        </g>
    </g>
</svg>